<svg width="18" height="18" viewBox="0 0 18 18" fill="none" xmlns="http://www.w3.org/2000/svg">
<path d="M11.26 0.907513L11.1875 0.842513C11.0272 0.715977 10.8261 0.652693 10.6222 0.664675C10.4184 0.676658 10.226 0.763072 10.0817 0.907513L10.0167 0.980013C9.89018 1.14015 9.82693 1.34117 9.83891 1.54488C9.85089 1.74859 9.93728 1.94081 10.0817 2.08501L11.1642 3.16585H6.49916L6.29916 3.16918C4.78837 3.2206 3.35659 3.85675 2.30579 4.94346C1.25498 6.03018 0.667294 7.48251 0.666656 8.99418C0.666656 10.1983 1.03166 11.3175 1.65749 12.2433C1.78601 12.423 1.98064 12.5443 2.19858 12.5805C2.41651 12.6167 2.63989 12.5648 2.81957 12.4363C2.99926 12.3077 3.12053 12.1131 3.15671 11.8952C3.19289 11.6772 3.14101 11.4539 3.01249 11.2742L2.89999 11.0925C2.53114 10.4596 2.33578 9.74052 2.33366 9.00795C2.33153 8.27537 2.5227 7.5552 2.88787 6.92012C3.25304 6.28504 3.77929 5.75754 4.41349 5.39086C5.0477 5.02418 5.76741 4.8313 6.49999 4.83168H11.1625L10.0817 5.91251L10.0167 5.98501C9.88134 6.15142 9.81547 6.36362 9.83277 6.5774C9.85007 6.79118 9.94921 6.99003 10.1095 7.13251C10.2698 7.27499 10.479 7.3501 10.6933 7.34218C10.9076 7.33426 11.1106 7.24393 11.26 7.09001L13.765 4.58751L13.8292 4.51501C13.9556 4.35487 14.0189 4.15386 14.0069 3.95015C13.9949 3.74643 13.9085 3.55422 13.7642 3.41001L11.26 0.907513ZM16.3225 5.71668C16.2158 5.57973 16.0689 5.47956 15.9024 5.43022C15.736 5.38087 15.5582 5.3848 15.3941 5.44147C15.23 5.49813 15.0877 5.60469 14.9872 5.74624C14.8866 5.88778 14.8328 6.05722 14.8333 6.23085C14.8333 6.40501 14.8867 6.56585 14.9767 6.69835C15.391 7.32601 15.6276 8.05417 15.6614 8.80551C15.6952 9.55685 15.5249 10.3033 15.1685 10.9656C14.8121 11.6279 14.283 12.1814 13.6374 12.5671C12.9918 12.9529 12.2538 13.1566 11.5017 13.1567H6.84499L7.92333 12.0817L7.99249 12.0017C8.10598 11.8547 8.16713 11.674 8.16622 11.4883C8.16532 11.3026 8.10241 11.1225 7.98749 10.9767L7.92333 10.9033L7.84416 10.8333C7.69697 10.7196 7.51599 10.6583 7.32996 10.6592C7.14394 10.6601 6.96356 10.7232 6.81749 10.8383L6.74416 10.9033L4.23999 13.4058L4.17082 13.485C4.05713 13.6321 3.99586 13.8129 3.99677 13.9988C3.99767 14.1847 4.0607 14.3649 4.17582 14.5108L4.23999 14.5833L6.74416 17.0858L6.82332 17.1558C6.98421 17.2801 7.18498 17.3413 7.38783 17.3278C7.59068 17.3144 7.78162 17.2273 7.92471 17.0829C8.06779 16.9384 8.15315 16.7467 8.16471 16.5437C8.17628 16.3408 8.11325 16.1406 7.98749 15.9808L7.92333 15.9083L6.83666 14.8225H11.5L11.7 14.82C12.7423 14.7842 13.7559 14.4695 14.6352 13.9087C15.5145 13.3479 16.2272 12.5616 16.6992 11.6316C17.1713 10.7016 17.3852 9.66209 17.3188 8.62131C17.2524 7.58053 16.908 6.57661 16.3217 5.71418V5.71668H16.3225Z" fill="#F6F6F6"/>
</svg>
